<?xml version="1.0" encoding="utf-8" standalone="no"?>
<!DOCTYPE svg PUBLIC "-//W3C//DTD SVG 1.1//EN"
  "http://www.w3.org/Graphics/SVG/1.1/DTD/svg11.dtd">
<svg height="576pt" version="1.1" viewBox="0 0 576 576" width="576pt" xmlns="http://www.w3.org/2000/svg" xmlns:xlink="http://www.w3.org/1999/xlink">
 <metadata>
  <rdf:RDF xmlns:cc="http://creativecommons.org/ns#" xmlns:dc="http://purl.org/dc/elements/1.1/" xmlns:rdf="http://www.w3.org/1999/02/22-rdf-syntax-ns#">
   <cc:Work>
    <dc:type rdf:resource="http://purl.org/dc/dcmitype/StillImage"/>
    <dc:date>2021-07-02T15:01:19.096202</dc:date>
    <dc:format>image/svg+xml</dc:format>
    <dc:creator>
     <cc:Agent>
      <dc:title>Matplotlib v3.4.2, https://matplotlib.org/</dc:title>
     </cc:Agent>
    </dc:creator>
   </cc:Work>
  </rdf:RDF>
 </metadata>
 <defs>
  <style type="text/css">*{stroke-linecap:butt;stroke-linejoin:round;}</style>
 </defs>
 <g id="figure_1">
  <g id="patch_1">
   <path d="M 0 576 
L 576 576 
L 576 0 
L 0 0 
z
" style="fill:none;"/>
  </g>
  <g id="axes_1">
   <g id="patch_2">
    <path d="M 72 504 
L 518.4 504 
L 518.4 69.12 
L 72 69.12 
z
" style="fill:#ffffff;"/>
   </g>
   <g id="PolyCollection_1">
    <defs>
     <path d="M 185.898215 -121.409774 
L 181.301785 -121.409774 
L 180.828109 -122.913564 
L 180.281207 -124.417355 
L 179.655143 -125.921146 
L 178.944567 -127.424936 
L 178.144934 -128.928727 
L 177.252724 -130.432518 
L 176.265651 -131.936308 
L 175.182842 -133.440099 
L 174.004979 -134.94389 
L 172.7344 -136.44768 
L 171.375125 -137.951471 
L 169.932835 -139.455262 
L 168.414759 -140.959052 
L 166.829502 -142.462843 
L 165.186798 -143.966634 
L 163.497195 -145.470424 
L 161.771695 -146.974215 
L 160.021356 -148.478005 
L 158.256869 -149.981796 
L 156.488145 -151.485587 
L 154.723923 -152.989377 
L 152.971429 -154.493168 
L 151.236094 -155.996959 
L 149.521373 -157.500749 
L 147.828649 -159.00454 
L 146.157263 -160.508331 
L 144.504649 -162.012121 
L 142.866584 -163.515912 
L 141.237544 -165.019703 
L 139.611146 -166.523493 
L 137.980647 -168.027284 
L 136.339499 -169.531075 
L 134.681893 -171.034865 
L 133.003289 -172.538656 
L 131.300885 -174.042447 
L 129.573991 -175.546237 
L 127.824302 -177.050028 
L 126.056013 -178.553819 
L 124.275808 -180.057609 
L 122.492678 -181.5614 
L 120.717607 -183.065191 
L 118.963126 -184.568981 
L 117.242769 -186.072772 
L 115.570461 -187.576563 
L 113.959891 -189.080353 
L 112.423895 -190.584144 
L 110.973914 -192.087935 
L 109.619547 -193.591725 
L 108.368257 -195.095516 
L 107.225219 -196.599307 
L 106.193366 -198.103097 
L 105.273584 -199.606888 
L 104.465087 -201.110679 
L 103.765904 -202.614469 
L 103.173474 -204.11826 
L 102.685281 -205.62205 
L 102.299491 -207.125841 
L 102.015536 -208.629632 
L 101.834607 -210.133422 
L 101.76 -211.637213 
L 101.797309 -213.141004 
L 101.954424 -214.644794 
L 102.241347 -216.148585 
L 102.669825 -217.652376 
L 103.252826 -219.156166 
L 104.003877 -220.659957 
L 104.93632 -222.163748 
L 106.062509 -223.667538 
L 107.393014 -225.171329 
L 108.935859 -226.67512 
L 110.695845 -228.17891 
L 112.673993 -229.682701 
L 114.867136 -231.186492 
L 117.267674 -232.690282 
L 119.86352 -234.194073 
L 122.638214 -235.697864 
L 125.571224 -237.201654 
L 128.638403 -238.705445 
L 131.812584 -240.209236 
L 135.064291 -241.713026 
L 138.362523 -243.216817 
L 141.675591 -244.720608 
L 144.971959 -246.224398 
L 148.221061 -247.728189 
L 151.394063 -249.23198 
L 154.464538 -250.73577 
L 157.409034 -252.239561 
L 160.207514 -253.743352 
L 162.84366 -255.247142 
L 165.305039 -256.750933 
L 167.58313 -258.254723 
L 169.673222 -259.758514 
L 171.574197 -261.262305 
L 173.288223 -262.766095 
L 174.820365 -264.269886 
L 176.178146 -265.773677 
L 177.371083 -267.277467 
L 178.410211 -268.781258 
L 179.307616 -270.285049 
L 187.892384 -270.285049 
L 187.892384 -270.285049 
L 188.789789 -268.781258 
L 189.828917 -267.277467 
L 191.021854 -265.773677 
L 192.379635 -264.269886 
L 193.911777 -262.766095 
L 195.625803 -261.262305 
L 197.526778 -259.758514 
L 199.61687 -258.254723 
L 201.894961 -256.750933 
L 204.35634 -255.247142 
L 206.992486 -253.743352 
L 209.790966 -252.239561 
L 212.735462 -250.73577 
L 215.805937 -249.23198 
L 218.978939 -247.728189 
L 222.228041 -246.224398 
L 225.524409 -244.720608 
L 228.837477 -243.216817 
L 232.135709 -241.713026 
L 235.387416 -240.209236 
L 238.561597 -238.705445 
L 241.628776 -237.201654 
L 244.561786 -235.697864 
L 247.33648 -234.194073 
L 249.932326 -232.690282 
L 252.332864 -231.186492 
L 254.526007 -229.682701 
L 256.504155 -228.17891 
L 258.264141 -226.67512 
L 259.806986 -225.171329 
L 261.137491 -223.667538 
L 262.26368 -222.163748 
L 263.196123 -220.659957 
L 263.947174 -219.156166 
L 264.530175 -217.652376 
L 264.958653 -216.148585 
L 265.245576 -214.644794 
L 265.402691 -213.141004 
L 265.44 -211.637213 
L 265.365393 -210.133422 
L 265.184464 -208.629632 
L 264.900509 -207.125841 
L 264.514719 -205.62205 
L 264.026526 -204.11826 
L 263.434096 -202.614469 
L 262.734913 -201.110679 
L 261.926416 -199.606888 
L 261.006634 -198.103097 
L 259.974781 -196.599307 
L 258.831743 -195.095516 
L 257.580453 -193.591725 
L 256.226086 -192.087935 
L 254.776105 -190.584144 
L 253.240109 -189.080353 
L 251.629539 -187.576563 
L 249.957231 -186.072772 
L 248.236874 -184.568981 
L 246.482393 -183.065191 
L 244.707322 -181.5614 
L 242.924192 -180.057609 
L 241.143987 -178.553819 
L 239.375698 -177.050028 
L 237.626009 -175.546237 
L 235.899115 -174.042447 
L 234.196711 -172.538656 
L 232.518107 -171.034865 
L 230.860501 -169.531075 
L 229.219353 -168.027284 
L 227.588854 -166.523493 
L 225.962456 -165.019703 
L 224.333416 -163.515912 
L 222.695351 -162.012121 
L 221.042737 -160.508331 
L 219.371351 -159.00454 
L 217.678627 -157.500749 
L 215.963906 -155.996959 
L 214.228571 -154.493168 
L 212.476077 -152.989377 
L 210.711855 -151.485587 
L 208.943131 -149.981796 
L 207.178644 -148.478005 
L 205.428305 -146.974215 
L 203.702805 -145.470424 
L 202.013202 -143.966634 
L 200.370498 -142.462843 
L 198.785241 -140.959052 
L 197.267165 -139.455262 
L 195.824875 -137.951471 
L 194.4656 -136.44768 
L 193.195021 -134.94389 
L 192.017158 -133.440099 
L 190.934349 -131.936308 
L 189.947276 -130.432518 
L 189.055066 -128.928727 
L 188.255433 -127.424936 
L 187.544857 -125.921146 
L 186.918793 -124.417355 
L 186.371891 -122.913564 
L 185.898215 -121.409774 
z
" id="m07669d53ac" style="stroke:#3f3f3f;stroke-width:1.5;"/>
    </defs>
    <g clip-path="url(#p8a09d67b99)">
     <use style="fill:#3274a1;stroke:#3f3f3f;stroke-width:1.5;" x="0" xlink:href="#m07669d53ac" y="576"/>
    </g>
   </g>
   <g id="PolyCollection_2">
    <defs>
     <path d="M 409.870141 -128.469697 
L 403.729859 -128.469697 
L 403.008396 -132.116642 
L 402.150982 -135.763588 
L 401.14032 -139.410534 
L 399.958774 -143.05748 
L 398.588812 -146.704426 
L 397.013522 -150.351372 
L 395.217213 -153.998317 
L 393.186077 -157.645263 
L 390.9089 -161.292209 
L 388.377813 -164.939155 
L 385.589033 -168.586101 
L 382.543587 -172.233046 
L 379.247973 -175.879992 
L 375.714724 -179.526938 
L 371.962839 -183.173884 
L 368.018042 -186.82083 
L 363.912844 -190.467776 
L 359.686369 -194.114721 
L 355.383928 -197.761667 
L 351.056334 -201.408613 
L 346.75896 -205.055559 
L 342.550533 -208.702505 
L 338.491728 -212.349451 
L 334.643566 -215.996396 
L 331.065692 -219.643342 
L 327.814598 -223.290288 
L 324.941851 -226.937234 
L 322.49242 -230.58418 
L 320.503181 -234.231126 
L 319.001664 -237.878071 
L 318.005128 -241.525017 
L 317.52 -245.171963 
L 317.541729 -248.818909 
L 318.055056 -252.465855 
L 319.034703 -256.112801 
L 320.446439 -259.759746 
L 322.24847 -263.406692 
L 324.393086 -267.053638 
L 326.828463 -270.700584 
L 329.500534 -274.34753 
L 332.354823 -277.994475 
L 335.338149 -281.641421 
L 338.400116 -285.288367 
L 341.494324 -288.935313 
L 344.579258 -292.582259 
L 347.618839 -296.229205 
L 350.582632 -299.87615 
L 353.445753 -303.523096 
L 356.188515 -307.170042 
L 358.795884 -310.816988 
L 361.256814 -314.463934 
L 363.563536 -318.11088 
L 365.710875 -321.757825 
L 367.695654 -325.404771 
L 369.516231 -329.051717 
L 371.172199 -332.698663 
L 372.664253 -336.345609 
L 373.994221 -339.992555 
L 375.165224 -343.6395 
L 376.181927 -347.286446 
L 377.050839 -350.933392 
L 377.780598 -354.580338 
L 378.382199 -358.227284 
L 378.869112 -361.87423 
L 379.257271 -365.521175 
L 379.564896 -369.168121 
L 379.812145 -372.815067 
L 380.020624 -376.462013 
L 380.212748 -380.108959 
L 380.411008 -383.755904 
L 380.637185 -387.40285 
L 380.911547 -391.049796 
L 381.252096 -394.696742 
L 381.673888 -398.343688 
L 382.188495 -401.990634 
L 382.803611 -405.637579 
L 383.522839 -409.284525 
L 384.345674 -412.931471 
L 385.267652 -416.578417 
L 386.280685 -420.225363 
L 387.373528 -423.872309 
L 388.532371 -427.519254 
L 389.741501 -431.1662 
L 390.984005 -434.813146 
L 392.242485 -438.460092 
L 393.499725 -442.107038 
L 394.739304 -445.753984 
L 395.946123 -449.400929 
L 397.106822 -453.047875 
L 398.210081 -456.694821 
L 399.246818 -460.341767 
L 400.210254 -463.988713 
L 401.095894 -467.635659 
L 401.901409 -471.282604 
L 402.626448 -474.92955 
L 403.272401 -478.576496 
L 403.842122 -482.223442 
L 404.339637 -485.870388 
L 404.769858 -489.517333 
L 408.830142 -489.517333 
L 408.830142 -489.517333 
L 409.260363 -485.870388 
L 409.757878 -482.223442 
L 410.327599 -478.576496 
L 410.973552 -474.92955 
L 411.698591 -471.282604 
L 412.504106 -467.635659 
L 413.389746 -463.988713 
L 414.353182 -460.341767 
L 415.389919 -456.694821 
L 416.493178 -453.047875 
L 417.653877 -449.400929 
L 418.860696 -445.753984 
L 420.100275 -442.107038 
L 421.357515 -438.460092 
L 422.615995 -434.813146 
L 423.858499 -431.1662 
L 425.067629 -427.519254 
L 426.226472 -423.872309 
L 427.319315 -420.225363 
L 428.332348 -416.578417 
L 429.254326 -412.931471 
L 430.077161 -409.284525 
L 430.796389 -405.637579 
L 431.411505 -401.990634 
L 431.926112 -398.343688 
L 432.347904 -394.696742 
L 432.688453 -391.049796 
L 432.962815 -387.40285 
L 433.188992 -383.755904 
L 433.387252 -380.108959 
L 433.579376 -376.462013 
L 433.787855 -372.815067 
L 434.035104 -369.168121 
L 434.342729 -365.521175 
L 434.730888 -361.87423 
L 435.217801 -358.227284 
L 435.819402 -354.580338 
L 436.549161 -350.933392 
L 437.418073 -347.286446 
L 438.434776 -343.6395 
L 439.605779 -339.992555 
L 440.935747 -336.345609 
L 442.427801 -332.698663 
L 444.083769 -329.051717 
L 445.904346 -325.404771 
L 447.889125 -321.757825 
L 450.036464 -318.11088 
L 452.343186 -314.463934 
L 454.804116 -310.816988 
L 457.411485 -307.170042 
L 460.154247 -303.523096 
L 463.017368 -299.87615 
L 465.981161 -296.229205 
L 469.020742 -292.582259 
L 472.105676 -288.935313 
L 475.199884 -285.288367 
L 478.261851 -281.641421 
L 481.245177 -277.994475 
L 484.099466 -274.34753 
L 486.771537 -270.700584 
L 489.206914 -267.053638 
L 491.35153 -263.406692 
L 493.153561 -259.759746 
L 494.565297 -256.112801 
L 495.544944 -252.465855 
L 496.058271 -248.818909 
L 496.08 -245.171963 
L 495.594872 -241.525017 
L 494.598336 -237.878071 
L 493.096819 -234.231126 
L 491.10758 -230.58418 
L 488.658149 -226.937234 
L 485.785402 -223.290288 
L 482.534308 -219.643342 
L 478.956434 -215.996396 
L 475.108272 -212.349451 
L 471.049467 -208.702505 
L 466.84104 -205.055559 
L 462.543666 -201.408613 
L 458.216072 -197.761667 
L 453.913631 -194.114721 
L 449.687156 -190.467776 
L 445.581958 -186.82083 
L 441.637161 -183.173884 
L 437.885276 -179.526938 
L 434.352027 -175.879992 
L 431.056413 -172.233046 
L 428.010967 -168.586101 
L 425.222187 -164.939155 
L 422.6911 -161.292209 
L 420.413923 -157.645263 
L 418.382787 -153.998317 
L 416.586478 -150.351372 
L 415.011188 -146.704426 
L 413.641226 -143.05748 
L 412.45968 -139.410534 
L 411.449018 -135.763588 
L 410.591604 -132.116642 
L 409.870141 -128.469697 
z
" id="m70b278c16d" style="stroke:#3f3f3f;stroke-width:1.5;"/>
    </defs>
    <g clip-path="url(#p8a09d67b99)">
     <use style="fill:#ca941f;stroke:#3f3f3f;stroke-width:1.5;" x="0" xlink:href="#m70b278c16d" y="576"/>
    </g>
   </g>
   <g id="matplotlib.axis_1">
    <g id="xtick_1">
     <g id="line2d_1">
      <defs>
       <path d="M 0 0 
L 0 3.5 
" id="m407b5e4d81" style="stroke:#000000;stroke-width:0.8;"/>
      </defs>
      <g>
       <use style="stroke:#000000;stroke-width:0.8;" x="183.6" xlink:href="#m407b5e4d81" y="504"/>
      </g>
     </g>
     <g id="text_1">
      <!-- WT -->
      <g transform="translate(169.204219 524.677187)scale(0.18 -0.18)">
       <defs>
        <path d="M 213 4666 
L 850 4666 
L 1831 722 
L 2809 4666 
L 3519 4666 
L 4500 722 
L 5478 4666 
L 6119 4666 
L 4947 0 
L 4153 0 
L 3169 4050 
L 2175 0 
L 1381 0 
L 213 4666 
z
" id="DejaVuSans-57" transform="scale(0.015625)"/>
        <path d="M -19 4666 
L 3928 4666 
L 3928 4134 
L 2272 4134 
L 2272 0 
L 1638 0 
L 1638 4134 
L -19 4134 
L -19 4666 
z
" id="DejaVuSans-54" transform="scale(0.015625)"/>
       </defs>
       <use xlink:href="#DejaVuSans-57"/>
       <use x="98.876953" xlink:href="#DejaVuSans-54"/>
      </g>
     </g>
    </g>
    <g id="xtick_2">
     <g id="line2d_2">
      <g>
       <use style="stroke:#000000;stroke-width:0.8;" x="406.8" xlink:href="#m407b5e4d81" y="504"/>
      </g>
     </g>
     <g id="text_2">
      <!-- Btd -->
      <g transform="translate(391.383281 524.677187)scale(0.18 -0.18)">
       <defs>
        <path d="M 1259 2228 
L 1259 519 
L 2272 519 
Q 2781 519 3026 730 
Q 3272 941 3272 1375 
Q 3272 1813 3026 2020 
Q 2781 2228 2272 2228 
L 1259 2228 
z
M 1259 4147 
L 1259 2741 
L 2194 2741 
Q 2656 2741 2882 2914 
Q 3109 3088 3109 3444 
Q 3109 3797 2882 3972 
Q 2656 4147 2194 4147 
L 1259 4147 
z
M 628 4666 
L 2241 4666 
Q 2963 4666 3353 4366 
Q 3744 4066 3744 3513 
Q 3744 3084 3544 2831 
Q 3344 2578 2956 2516 
Q 3422 2416 3680 2098 
Q 3938 1781 3938 1306 
Q 3938 681 3513 340 
Q 3088 0 2303 0 
L 628 0 
L 628 4666 
z
" id="DejaVuSans-42" transform="scale(0.015625)"/>
        <path d="M 1172 4494 
L 1172 3500 
L 2356 3500 
L 2356 3053 
L 1172 3053 
L 1172 1153 
Q 1172 725 1289 603 
Q 1406 481 1766 481 
L 2356 481 
L 2356 0 
L 1766 0 
Q 1100 0 847 248 
Q 594 497 594 1153 
L 594 3053 
L 172 3053 
L 172 3500 
L 594 3500 
L 594 4494 
L 1172 4494 
z
" id="DejaVuSans-74" transform="scale(0.015625)"/>
        <path d="M 2906 2969 
L 2906 4863 
L 3481 4863 
L 3481 0 
L 2906 0 
L 2906 525 
Q 2725 213 2448 61 
Q 2172 -91 1784 -91 
Q 1150 -91 751 415 
Q 353 922 353 1747 
Q 353 2572 751 3078 
Q 1150 3584 1784 3584 
Q 2172 3584 2448 3432 
Q 2725 3281 2906 2969 
z
M 947 1747 
Q 947 1113 1208 752 
Q 1469 391 1925 391 
Q 2381 391 2643 752 
Q 2906 1113 2906 1747 
Q 2906 2381 2643 2742 
Q 2381 3103 1925 3103 
Q 1469 3103 1208 2742 
Q 947 2381 947 1747 
z
" id="DejaVuSans-64" transform="scale(0.015625)"/>
       </defs>
       <use xlink:href="#DejaVuSans-42"/>
       <use x="68.603516" xlink:href="#DejaVuSans-74"/>
       <use x="107.8125" xlink:href="#DejaVuSans-64"/>
      </g>
     </g>
    </g>
    <g id="text_3">
     <!-- Type -->
     <g transform="translate(274.530937 546.097813)scale(0.18 -0.18)">
      <defs>
       <path d="M 2059 -325 
Q 1816 -950 1584 -1140 
Q 1353 -1331 966 -1331 
L 506 -1331 
L 506 -850 
L 844 -850 
Q 1081 -850 1212 -737 
Q 1344 -625 1503 -206 
L 1606 56 
L 191 3500 
L 800 3500 
L 1894 763 
L 2988 3500 
L 3597 3500 
L 2059 -325 
z
" id="DejaVuSans-79" transform="scale(0.015625)"/>
       <path d="M 1159 525 
L 1159 -1331 
L 581 -1331 
L 581 3500 
L 1159 3500 
L 1159 2969 
Q 1341 3281 1617 3432 
Q 1894 3584 2278 3584 
Q 2916 3584 3314 3078 
Q 3713 2572 3713 1747 
Q 3713 922 3314 415 
Q 2916 -91 2278 -91 
Q 1894 -91 1617 61 
Q 1341 213 1159 525 
z
M 3116 1747 
Q 3116 2381 2855 2742 
Q 2594 3103 2138 3103 
Q 1681 3103 1420 2742 
Q 1159 2381 1159 1747 
Q 1159 1113 1420 752 
Q 1681 391 2138 391 
Q 2594 391 2855 752 
Q 3116 1113 3116 1747 
z
" id="DejaVuSans-70" transform="scale(0.015625)"/>
       <path d="M 3597 1894 
L 3597 1613 
L 953 1613 
Q 991 1019 1311 708 
Q 1631 397 2203 397 
Q 2534 397 2845 478 
Q 3156 559 3463 722 
L 3463 178 
Q 3153 47 2828 -22 
Q 2503 -91 2169 -91 
Q 1331 -91 842 396 
Q 353 884 353 1716 
Q 353 2575 817 3079 
Q 1281 3584 2069 3584 
Q 2775 3584 3186 3129 
Q 3597 2675 3597 1894 
z
M 3022 2063 
Q 3016 2534 2758 2815 
Q 2500 3097 2075 3097 
Q 1594 3097 1305 2825 
Q 1016 2553 972 2059 
L 3022 2063 
z
" id="DejaVuSans-65" transform="scale(0.015625)"/>
      </defs>
      <use xlink:href="#DejaVuSans-54"/>
      <use x="45.458984" xlink:href="#DejaVuSans-79"/>
      <use x="104.638672" xlink:href="#DejaVuSans-70"/>
      <use x="168.115234" xlink:href="#DejaVuSans-65"/>
     </g>
    </g>
   </g>
   <g id="matplotlib.axis_2">
    <g id="ytick_1">
     <g id="line2d_3">
      <defs>
       <path d="M 0 0 
L -3.5 0 
" id="m16335f4e7f" style="stroke:#000000;stroke-width:0.8;"/>
      </defs>
      <g>
       <use style="stroke:#000000;stroke-width:0.8;" x="72" xlink:href="#m16335f4e7f" y="479.84"/>
      </g>
     </g>
     <g id="text_4">
      <!-- −40 -->
      <g transform="translate(27.011563 486.678594)scale(0.18 -0.18)">
       <defs>
        <path d="M 678 2272 
L 4684 2272 
L 4684 1741 
L 678 1741 
L 678 2272 
z
" id="DejaVuSans-2212" transform="scale(0.015625)"/>
        <path d="M 2419 4116 
L 825 1625 
L 2419 1625 
L 2419 4116 
z
M 2253 4666 
L 3047 4666 
L 3047 1625 
L 3713 1625 
L 3713 1100 
L 3047 1100 
L 3047 0 
L 2419 0 
L 2419 1100 
L 313 1100 
L 313 1709 
L 2253 4666 
z
" id="DejaVuSans-34" transform="scale(0.015625)"/>
        <path d="M 2034 4250 
Q 1547 4250 1301 3770 
Q 1056 3291 1056 2328 
Q 1056 1369 1301 889 
Q 1547 409 2034 409 
Q 2525 409 2770 889 
Q 3016 1369 3016 2328 
Q 3016 3291 2770 3770 
Q 2525 4250 2034 4250 
z
M 2034 4750 
Q 2819 4750 3233 4129 
Q 3647 3509 3647 2328 
Q 3647 1150 3233 529 
Q 2819 -91 2034 -91 
Q 1250 -91 836 529 
Q 422 1150 422 2328 
Q 422 3509 836 4129 
Q 1250 4750 2034 4750 
z
" id="DejaVuSans-30" transform="scale(0.015625)"/>
       </defs>
       <use xlink:href="#DejaVuSans-2212"/>
       <use x="83.789062" xlink:href="#DejaVuSans-34"/>
       <use x="147.412109" xlink:href="#DejaVuSans-30"/>
      </g>
     </g>
    </g>
    <g id="ytick_2">
     <g id="line2d_4">
      <g>
       <use style="stroke:#000000;stroke-width:0.8;" x="72" xlink:href="#m16335f4e7f" y="431.52"/>
      </g>
     </g>
     <g id="text_5">
      <!-- −30 -->
      <g transform="translate(27.011563 438.358594)scale(0.18 -0.18)">
       <defs>
        <path d="M 2597 2516 
Q 3050 2419 3304 2112 
Q 3559 1806 3559 1356 
Q 3559 666 3084 287 
Q 2609 -91 1734 -91 
Q 1441 -91 1130 -33 
Q 819 25 488 141 
L 488 750 
Q 750 597 1062 519 
Q 1375 441 1716 441 
Q 2309 441 2620 675 
Q 2931 909 2931 1356 
Q 2931 1769 2642 2001 
Q 2353 2234 1838 2234 
L 1294 2234 
L 1294 2753 
L 1863 2753 
Q 2328 2753 2575 2939 
Q 2822 3125 2822 3475 
Q 2822 3834 2567 4026 
Q 2313 4219 1838 4219 
Q 1578 4219 1281 4162 
Q 984 4106 628 3988 
L 628 4550 
Q 988 4650 1302 4700 
Q 1616 4750 1894 4750 
Q 2613 4750 3031 4423 
Q 3450 4097 3450 3541 
Q 3450 3153 3228 2886 
Q 3006 2619 2597 2516 
z
" id="DejaVuSans-33" transform="scale(0.015625)"/>
       </defs>
       <use xlink:href="#DejaVuSans-2212"/>
       <use x="83.789062" xlink:href="#DejaVuSans-33"/>
       <use x="147.412109" xlink:href="#DejaVuSans-30"/>
      </g>
     </g>
    </g>
    <g id="ytick_3">
     <g id="line2d_5">
      <g>
       <use style="stroke:#000000;stroke-width:0.8;" x="72" xlink:href="#m16335f4e7f" y="383.2"/>
      </g>
     </g>
     <g id="text_6">
      <!-- −20 -->
      <g transform="translate(27.011563 390.038594)scale(0.18 -0.18)">
       <defs>
        <path d="M 1228 531 
L 3431 531 
L 3431 0 
L 469 0 
L 469 531 
Q 828 903 1448 1529 
Q 2069 2156 2228 2338 
Q 2531 2678 2651 2914 
Q 2772 3150 2772 3378 
Q 2772 3750 2511 3984 
Q 2250 4219 1831 4219 
Q 1534 4219 1204 4116 
Q 875 4013 500 3803 
L 500 4441 
Q 881 4594 1212 4672 
Q 1544 4750 1819 4750 
Q 2544 4750 2975 4387 
Q 3406 4025 3406 3419 
Q 3406 3131 3298 2873 
Q 3191 2616 2906 2266 
Q 2828 2175 2409 1742 
Q 1991 1309 1228 531 
z
" id="DejaVuSans-32" transform="scale(0.015625)"/>
       </defs>
       <use xlink:href="#DejaVuSans-2212"/>
       <use x="83.789062" xlink:href="#DejaVuSans-32"/>
       <use x="147.412109" xlink:href="#DejaVuSans-30"/>
      </g>
     </g>
    </g>
    <g id="ytick_4">
     <g id="line2d_6">
      <g>
       <use style="stroke:#000000;stroke-width:0.8;" x="72" xlink:href="#m16335f4e7f" y="334.88"/>
      </g>
     </g>
     <g id="text_7">
      <!-- −10 -->
      <g transform="translate(27.011563 341.718594)scale(0.18 -0.18)">
       <defs>
        <path d="M 794 531 
L 1825 531 
L 1825 4091 
L 703 3866 
L 703 4441 
L 1819 4666 
L 2450 4666 
L 2450 531 
L 3481 531 
L 3481 0 
L 794 0 
L 794 531 
z
" id="DejaVuSans-31" transform="scale(0.015625)"/>
       </defs>
       <use xlink:href="#DejaVuSans-2212"/>
       <use x="83.789062" xlink:href="#DejaVuSans-31"/>
       <use x="147.412109" xlink:href="#DejaVuSans-30"/>
      </g>
     </g>
    </g>
    <g id="ytick_5">
     <g id="line2d_7">
      <g>
       <use style="stroke:#000000;stroke-width:0.8;" x="72" xlink:href="#m16335f4e7f" y="286.56"/>
      </g>
     </g>
     <g id="text_8">
      <!-- 0 -->
      <g transform="translate(53.5475 293.398594)scale(0.18 -0.18)">
       <use xlink:href="#DejaVuSans-30"/>
      </g>
     </g>
    </g>
    <g id="ytick_6">
     <g id="line2d_8">
      <g>
       <use style="stroke:#000000;stroke-width:0.8;" x="72" xlink:href="#m16335f4e7f" y="238.24"/>
      </g>
     </g>
     <g id="text_9">
      <!-- 10 -->
      <g transform="translate(42.095 245.078594)scale(0.18 -0.18)">
       <use xlink:href="#DejaVuSans-31"/>
       <use x="63.623047" xlink:href="#DejaVuSans-30"/>
      </g>
     </g>
    </g>
    <g id="ytick_7">
     <g id="line2d_9">
      <g>
       <use style="stroke:#000000;stroke-width:0.8;" x="72" xlink:href="#m16335f4e7f" y="189.92"/>
      </g>
     </g>
     <g id="text_10">
      <!-- 20 -->
      <g transform="translate(42.095 196.758594)scale(0.18 -0.18)">
       <use xlink:href="#DejaVuSans-32"/>
       <use x="63.623047" xlink:href="#DejaVuSans-30"/>
      </g>
     </g>
    </g>
    <g id="ytick_8">
     <g id="line2d_10">
      <g>
       <use style="stroke:#000000;stroke-width:0.8;" x="72" xlink:href="#m16335f4e7f" y="141.6"/>
      </g>
     </g>
     <g id="text_11">
      <!-- 30 -->
      <g transform="translate(42.095 148.438594)scale(0.18 -0.18)">
       <use xlink:href="#DejaVuSans-33"/>
       <use x="63.623047" xlink:href="#DejaVuSans-30"/>
      </g>
     </g>
    </g>
    <g id="ytick_9">
     <g id="line2d_11">
      <g>
       <use style="stroke:#000000;stroke-width:0.8;" x="72" xlink:href="#m16335f4e7f" y="93.28"/>
      </g>
     </g>
     <g id="text_12">
      <!-- 40 -->
      <g transform="translate(42.095 100.118594)scale(0.18 -0.18)">
       <use xlink:href="#DejaVuSans-34"/>
       <use x="63.623047" xlink:href="#DejaVuSans-30"/>
      </g>
     </g>
    </g>
    <g id="text_13">
     <!-- Angle Diference [°] -->
     <g transform="translate(19.268125 372.777187)rotate(-90)scale(0.18 -0.18)">
      <defs>
       <path d="M 2188 4044 
L 1331 1722 
L 3047 1722 
L 2188 4044 
z
M 1831 4666 
L 2547 4666 
L 4325 0 
L 3669 0 
L 3244 1197 
L 1141 1197 
L 716 0 
L 50 0 
L 1831 4666 
z
" id="DejaVuSans-41" transform="scale(0.015625)"/>
       <path d="M 3513 2113 
L 3513 0 
L 2938 0 
L 2938 2094 
Q 2938 2591 2744 2837 
Q 2550 3084 2163 3084 
Q 1697 3084 1428 2787 
Q 1159 2491 1159 1978 
L 1159 0 
L 581 0 
L 581 3500 
L 1159 3500 
L 1159 2956 
Q 1366 3272 1645 3428 
Q 1925 3584 2291 3584 
Q 2894 3584 3203 3211 
Q 3513 2838 3513 2113 
z
" id="DejaVuSans-6e" transform="scale(0.015625)"/>
       <path d="M 2906 1791 
Q 2906 2416 2648 2759 
Q 2391 3103 1925 3103 
Q 1463 3103 1205 2759 
Q 947 2416 947 1791 
Q 947 1169 1205 825 
Q 1463 481 1925 481 
Q 2391 481 2648 825 
Q 2906 1169 2906 1791 
z
M 3481 434 
Q 3481 -459 3084 -895 
Q 2688 -1331 1869 -1331 
Q 1566 -1331 1297 -1286 
Q 1028 -1241 775 -1147 
L 775 -588 
Q 1028 -725 1275 -790 
Q 1522 -856 1778 -856 
Q 2344 -856 2625 -561 
Q 2906 -266 2906 331 
L 2906 616 
Q 2728 306 2450 153 
Q 2172 0 1784 0 
Q 1141 0 747 490 
Q 353 981 353 1791 
Q 353 2603 747 3093 
Q 1141 3584 1784 3584 
Q 2172 3584 2450 3431 
Q 2728 3278 2906 2969 
L 2906 3500 
L 3481 3500 
L 3481 434 
z
" id="DejaVuSans-67" transform="scale(0.015625)"/>
       <path d="M 603 4863 
L 1178 4863 
L 1178 0 
L 603 0 
L 603 4863 
z
" id="DejaVuSans-6c" transform="scale(0.015625)"/>
       <path id="DejaVuSans-20" transform="scale(0.015625)"/>
       <path d="M 1259 4147 
L 1259 519 
L 2022 519 
Q 2988 519 3436 956 
Q 3884 1394 3884 2338 
Q 3884 3275 3436 3711 
Q 2988 4147 2022 4147 
L 1259 4147 
z
M 628 4666 
L 1925 4666 
Q 3281 4666 3915 4102 
Q 4550 3538 4550 2338 
Q 4550 1131 3912 565 
Q 3275 0 1925 0 
L 628 0 
L 628 4666 
z
" id="DejaVuSans-44" transform="scale(0.015625)"/>
       <path d="M 603 3500 
L 1178 3500 
L 1178 0 
L 603 0 
L 603 3500 
z
M 603 4863 
L 1178 4863 
L 1178 4134 
L 603 4134 
L 603 4863 
z
" id="DejaVuSans-69" transform="scale(0.015625)"/>
       <path d="M 2375 4863 
L 2375 4384 
L 1825 4384 
Q 1516 4384 1395 4259 
Q 1275 4134 1275 3809 
L 1275 3500 
L 2222 3500 
L 2222 3053 
L 1275 3053 
L 1275 0 
L 697 0 
L 697 3053 
L 147 3053 
L 147 3500 
L 697 3500 
L 697 3744 
Q 697 4328 969 4595 
Q 1241 4863 1831 4863 
L 2375 4863 
z
" id="DejaVuSans-66" transform="scale(0.015625)"/>
       <path d="M 2631 2963 
Q 2534 3019 2420 3045 
Q 2306 3072 2169 3072 
Q 1681 3072 1420 2755 
Q 1159 2438 1159 1844 
L 1159 0 
L 581 0 
L 581 3500 
L 1159 3500 
L 1159 2956 
Q 1341 3275 1631 3429 
Q 1922 3584 2338 3584 
Q 2397 3584 2469 3576 
Q 2541 3569 2628 3553 
L 2631 2963 
z
" id="DejaVuSans-72" transform="scale(0.015625)"/>
       <path d="M 3122 3366 
L 3122 2828 
Q 2878 2963 2633 3030 
Q 2388 3097 2138 3097 
Q 1578 3097 1268 2742 
Q 959 2388 959 1747 
Q 959 1106 1268 751 
Q 1578 397 2138 397 
Q 2388 397 2633 464 
Q 2878 531 3122 666 
L 3122 134 
Q 2881 22 2623 -34 
Q 2366 -91 2075 -91 
Q 1284 -91 818 406 
Q 353 903 353 1747 
Q 353 2603 823 3093 
Q 1294 3584 2113 3584 
Q 2378 3584 2631 3529 
Q 2884 3475 3122 3366 
z
" id="DejaVuSans-63" transform="scale(0.015625)"/>
       <path d="M 550 4863 
L 1875 4863 
L 1875 4416 
L 1125 4416 
L 1125 -397 
L 1875 -397 
L 1875 -844 
L 550 -844 
L 550 4863 
z
" id="DejaVuSans-5b" transform="scale(0.015625)"/>
       <path d="M 1600 4347 
Q 1350 4347 1178 4173 
Q 1006 4000 1006 3750 
Q 1006 3503 1178 3333 
Q 1350 3163 1600 3163 
Q 1850 3163 2022 3333 
Q 2194 3503 2194 3750 
Q 2194 3997 2020 4172 
Q 1847 4347 1600 4347 
z
M 1600 4750 
Q 1800 4750 1984 4673 
Q 2169 4597 2303 4453 
Q 2447 4313 2519 4134 
Q 2591 3956 2591 3750 
Q 2591 3338 2302 3052 
Q 2013 2766 1594 2766 
Q 1172 2766 890 3047 
Q 609 3328 609 3750 
Q 609 4169 896 4459 
Q 1184 4750 1600 4750 
z
" id="DejaVuSans-b0" transform="scale(0.015625)"/>
       <path d="M 1947 4863 
L 1947 -844 
L 622 -844 
L 622 -397 
L 1369 -397 
L 1369 4416 
L 622 4416 
L 622 4863 
L 1947 4863 
z
" id="DejaVuSans-5d" transform="scale(0.015625)"/>
      </defs>
      <use xlink:href="#DejaVuSans-41"/>
      <use x="68.408203" xlink:href="#DejaVuSans-6e"/>
      <use x="131.787109" xlink:href="#DejaVuSans-67"/>
      <use x="195.263672" xlink:href="#DejaVuSans-6c"/>
      <use x="223.046875" xlink:href="#DejaVuSans-65"/>
      <use x="284.570312" xlink:href="#DejaVuSans-20"/>
      <use x="316.357422" xlink:href="#DejaVuSans-44"/>
      <use x="393.359375" xlink:href="#DejaVuSans-69"/>
      <use x="421.142578" xlink:href="#DejaVuSans-66"/>
      <use x="456.347656" xlink:href="#DejaVuSans-65"/>
      <use x="517.871094" xlink:href="#DejaVuSans-72"/>
      <use x="556.734375" xlink:href="#DejaVuSans-65"/>
      <use x="618.257812" xlink:href="#DejaVuSans-6e"/>
      <use x="681.636719" xlink:href="#DejaVuSans-63"/>
      <use x="736.617188" xlink:href="#DejaVuSans-65"/>
      <use x="798.140625" xlink:href="#DejaVuSans-20"/>
      <use x="829.927734" xlink:href="#DejaVuSans-5b"/>
      <use x="868.941406" xlink:href="#DejaVuSans-b0"/>
      <use x="918.941406" xlink:href="#DejaVuSans-5d"/>
     </g>
    </g>
   </g>
   <g id="line2d_12">
    <path clip-path="url(#p8a09d67b99)" d="M 126.151512 339.018967 
L 241.048488 339.018967 
" style="fill:none;stroke:#3f3f3f;stroke-linecap:square;stroke-width:0.75;"/>
   </g>
   <g id="line2d_13">
    <path clip-path="url(#p8a09d67b99)" d="M 138.436841 407.855087 
L 228.763159 407.855087 
" style="fill:none;stroke:#3f3f3f;stroke-linecap:square;stroke-width:0.75;"/>
   </g>
   <g id="line2d_14">
    <path clip-path="url(#p8a09d67b99)" d="M 123.247832 340.098428 
L 243.952168 340.098428 
" style="fill:none;stroke:#3f3f3f;stroke-linecap:square;stroke-width:0.75;"/>
   </g>
   <g id="line2d_15">
    <path clip-path="url(#p8a09d67b99)" d="M 103.479127 358.33229 
L 263.720873 358.33229 
" style="fill:none;stroke:#3f3f3f;stroke-linecap:square;stroke-width:0.75;"/>
   </g>
   <g id="line2d_16">
    <path clip-path="url(#p8a09d67b99)" d="M 108.155084 351.349289 
L 259.044916 351.349289 
" style="fill:none;stroke:#3f3f3f;stroke-linecap:square;stroke-width:0.75;"/>
   </g>
   <g id="line2d_17">
    <path clip-path="url(#p8a09d67b99)" d="M 107.988967 379.754175 
L 259.211033 379.754175 
" style="fill:none;stroke:#3f3f3f;stroke-linecap:square;stroke-width:0.75;"/>
   </g>
   <g id="line2d_18">
    <path clip-path="url(#p8a09d67b99)" d="M 123.103751 393.895835 
L 244.096249 393.895835 
" style="fill:none;stroke:#3f3f3f;stroke-linecap:square;stroke-width:0.75;"/>
   </g>
   <g id="line2d_19">
    <path clip-path="url(#p8a09d67b99)" d="M 106.967432 377.471221 
L 260.232568 377.471221 
" style="fill:none;stroke:#3f3f3f;stroke-linecap:square;stroke-width:0.75;"/>
   </g>
   <g id="line2d_20">
    <path clip-path="url(#p8a09d67b99)" d="M 103.479127 357.872005 
L 263.720873 357.872005 
" style="fill:none;stroke:#3f3f3f;stroke-linecap:square;stroke-width:0.75;"/>
   </g>
   <g id="line2d_21">
    <path clip-path="url(#p8a09d67b99)" d="M 107.988967 379.171002 
L 259.211033 379.171002 
" style="fill:none;stroke:#3f3f3f;stroke-linecap:square;stroke-width:0.75;"/>
   </g>
   <g id="line2d_22">
    <path clip-path="url(#p8a09d67b99)" d="M 153.277714 421.286211 
L 213.922286 421.286211 
" style="fill:none;stroke:#3f3f3f;stroke-linecap:square;stroke-width:0.75;"/>
   </g>
   <g id="line2d_23">
    <path clip-path="url(#p8a09d67b99)" d="M 363.995901 257.848257 
L 449.604099 257.848257 
" style="fill:none;stroke:#3f3f3f;stroke-linecap:square;stroke-width:0.75;"/>
   </g>
   <g id="line2d_24">
    <path clip-path="url(#p8a09d67b99)" d="M 361.712246 262.016021 
L 451.887754 262.016021 
" style="fill:none;stroke:#3f3f3f;stroke-linecap:square;stroke-width:0.75;"/>
   </g>
   <g id="line2d_25">
    <path clip-path="url(#p8a09d67b99)" d="M 319.879647 336.647778 
L 493.720353 336.647778 
" style="fill:none;stroke:#3f3f3f;stroke-linecap:square;stroke-width:0.75;"/>
   </g>
   <g id="line2d_26">
    <path clip-path="url(#p8a09d67b99)" d="M 328.604452 352.254103 
L 484.995548 352.254103 
" style="fill:none;stroke:#3f3f3f;stroke-linecap:square;stroke-width:0.75;"/>
   </g>
   <g id="line2d_27">
    <path clip-path="url(#p8a09d67b99)" d="M 343.193028 368.574844 
L 470.406972 368.574844 
" style="fill:none;stroke:#3f3f3f;stroke-linecap:square;stroke-width:0.75;"/>
   </g>
   <g id="line2d_28">
    <path clip-path="url(#p8a09d67b99)" d="M 380.898813 186.975421 
L 432.701187 186.975421 
" style="fill:none;stroke:#3f3f3f;stroke-linecap:square;stroke-width:0.75;"/>
   </g>
   <g id="line2d_29">
    <path clip-path="url(#p8a09d67b99)" d="M 319.912356 320.239591 
L 493.687644 320.239591 
" style="fill:none;stroke:#3f3f3f;stroke-linecap:square;stroke-width:0.75;"/>
   </g>
   <g id="line2d_30">
    <path clip-path="url(#p8a09d67b99)" d="M 321.309975 315.974549 
L 492.290025 315.974549 
" style="fill:none;stroke:#3f3f3f;stroke-linecap:square;stroke-width:0.75;"/>
   </g>
   <g id="line2d_31">
    <path clip-path="url(#p8a09d67b99)" d="M 323.335496 344.185612 
L 490.264504 344.185612 
" style="fill:none;stroke:#3f3f3f;stroke-linecap:square;stroke-width:0.75;"/>
   </g>
   <g id="line2d_32">
    <path clip-path="url(#p8a09d67b99)" d="M 383.755611 165.438126 
L 429.844389 165.438126 
" style="fill:none;stroke:#3f3f3f;stroke-linecap:square;stroke-width:0.75;"/>
   </g>
   <g id="line2d_33">
    <path clip-path="url(#p8a09d67b99)" d="M 319.912356 320.840298 
L 493.687644 320.840298 
" style="fill:none;stroke:#3f3f3f;stroke-linecap:square;stroke-width:0.75;"/>
   </g>
   <g id="line2d_34">
    <path clip-path="url(#p8a09d67b99)" d="M 318.942506 323.716052 
L 494.657494 323.716052 
" style="fill:none;stroke:#3f3f3f;stroke-linecap:square;stroke-width:0.75;"/>
   </g>
   <g id="patch_3">
    <path d="M 72 504 
L 72 69.12 
" style="fill:none;stroke:#000000;stroke-linecap:square;stroke-linejoin:miter;stroke-width:0.8;"/>
   </g>
   <g id="patch_4">
    <path d="M 518.4 504 
L 518.4 69.12 
" style="fill:none;stroke:#000000;stroke-linecap:square;stroke-linejoin:miter;stroke-width:0.8;"/>
   </g>
   <g id="patch_5">
    <path d="M 72 504 
L 518.4 504 
" style="fill:none;stroke:#000000;stroke-linecap:square;stroke-linejoin:miter;stroke-width:0.8;"/>
   </g>
   <g id="patch_6">
    <path d="M 72 69.12 
L 518.4 69.12 
" style="fill:none;stroke:#000000;stroke-linecap:square;stroke-linejoin:miter;stroke-width:0.8;"/>
   </g>
   <g id="PathCollection_1">
    <defs>
     <path d="M 0 2.5 
C 0.663008 2.5 1.29895 2.236584 1.767767 1.767767 
C 2.236584 1.29895 2.5 0.663008 2.5 -0 
C 2.5 -0.663008 2.236584 -1.29895 1.767767 -1.767767 
C 1.29895 -2.236584 0.663008 -2.5 0 -2.5 
C -0.663008 -2.5 -1.29895 -2.236584 -1.767767 -1.767767 
C -2.236584 -1.29895 -2.5 -0.663008 -2.5 0 
C -2.5 0.663008 -2.236584 1.29895 -1.767767 1.767767 
C -1.29895 2.236584 -0.663008 2.5 0 2.5 
z
" id="C0_0_69e64d77c1"/>
    </defs>
    <g clip-path="url(#p8a09d67b99)">
     <use style="fill:#404040;" x="183.6" xlink:href="#C0_0_69e64d77c1" y="421.286211"/>
    </g>
    <g clip-path="url(#p8a09d67b99)">
     <use style="fill:#404040;" x="183.6" xlink:href="#C0_0_69e64d77c1" y="407.855087"/>
    </g>
    <g clip-path="url(#p8a09d67b99)">
     <use style="fill:#404040;" x="183.6" xlink:href="#C0_0_69e64d77c1" y="393.895835"/>
    </g>
    <g clip-path="url(#p8a09d67b99)">
     <use style="fill:#404040;" x="183.6" xlink:href="#C0_0_69e64d77c1" y="379.754175"/>
    </g>
    <g clip-path="url(#p8a09d67b99)">
     <use style="fill:#404040;" x="178.391352" xlink:href="#C0_0_69e64d77c1" y="379.171002"/>
    </g>
    <g clip-path="url(#p8a09d67b99)">
     <use style="fill:#404040;" x="188.175433" xlink:href="#C0_0_69e64d77c1" y="377.471221"/>
    </g>
    <g clip-path="url(#p8a09d67b99)">
     <use style="fill:#404040;" x="183.6" xlink:href="#C0_0_69e64d77c1" y="358.33229"/>
    </g>
    <g clip-path="url(#p8a09d67b99)">
     <use style="fill:#404040;" x="178.375722" xlink:href="#C0_0_69e64d77c1" y="357.872005"/>
    </g>
    <g clip-path="url(#p8a09d67b99)">
     <use style="fill:#404040;" x="183.6" xlink:href="#C0_0_69e64d77c1" y="351.349289"/>
    </g>
    <g clip-path="url(#p8a09d67b99)">
     <use style="fill:#404040;" x="183.6" xlink:href="#C0_0_69e64d77c1" y="340.098428"/>
    </g>
    <g clip-path="url(#p8a09d67b99)">
     <use style="fill:#404040;" x="178.493076" xlink:href="#C0_0_69e64d77c1" y="339.018967"/>
    </g>
   </g>
   <g id="PathCollection_2">
    <defs>
     <path d="M 0 2.5 
C 0.663008 2.5 1.29895 2.236584 1.767767 1.767767 
C 2.236584 1.29895 2.5 0.663008 2.5 -0 
C 2.5 -0.663008 2.236584 -1.29895 1.767767 -1.767767 
C 1.29895 -2.236584 0.663008 -2.5 0 -2.5 
C -0.663008 -2.5 -1.29895 -2.236584 -1.767767 -1.767767 
C -2.236584 -1.29895 -2.5 -0.663008 -2.5 0 
C -2.5 0.663008 -2.236584 1.29895 -1.767767 1.767767 
C -1.29895 2.236584 -0.663008 2.5 0 2.5 
z
" id="C1_0_118a36255f"/>
    </defs>
    <g clip-path="url(#p8a09d67b99)">
     <use style="fill:#404040;" x="406.8" xlink:href="#C1_0_118a36255f" y="368.574844"/>
    </g>
    <g clip-path="url(#p8a09d67b99)">
     <use style="fill:#404040;" x="406.8" xlink:href="#C1_0_118a36255f" y="352.254103"/>
    </g>
    <g clip-path="url(#p8a09d67b99)">
     <use style="fill:#404040;" x="406.8" xlink:href="#C1_0_118a36255f" y="344.185612"/>
    </g>
    <g clip-path="url(#p8a09d67b99)">
     <use style="fill:#404040;" x="406.8" xlink:href="#C1_0_118a36255f" y="336.647778"/>
    </g>
    <g clip-path="url(#p8a09d67b99)">
     <use style="fill:#404040;" x="406.8" xlink:href="#C1_0_118a36255f" y="323.716052"/>
    </g>
    <g clip-path="url(#p8a09d67b99)">
     <use style="fill:#404040;" x="402.671364" xlink:href="#C1_0_118a36255f" y="320.840298"/>
    </g>
    <g clip-path="url(#p8a09d67b99)">
     <use style="fill:#404040;" x="410.29186" xlink:href="#C1_0_118a36255f" y="320.239591"/>
    </g>
    <g clip-path="url(#p8a09d67b99)">
     <use style="fill:#404040;" x="406.8" xlink:href="#C1_0_118a36255f" y="315.974549"/>
    </g>
    <g clip-path="url(#p8a09d67b99)">
     <use style="fill:#404040;" x="406.8" xlink:href="#C1_0_118a36255f" y="262.016021"/>
    </g>
    <g clip-path="url(#p8a09d67b99)">
     <use style="fill:#404040;" x="404.460587" xlink:href="#C1_0_118a36255f" y="257.848257"/>
    </g>
    <g clip-path="url(#p8a09d67b99)">
     <use style="fill:#404040;" x="406.8" xlink:href="#C1_0_118a36255f" y="186.975421"/>
    </g>
    <g clip-path="url(#p8a09d67b99)">
     <use style="fill:#404040;" x="406.8" xlink:href="#C1_0_118a36255f" y="165.438126"/>
    </g>
   </g>
  </g>
 </g>
 <defs>
  <clipPath id="p8a09d67b99">
   <rect height="434.88" width="446.4" x="72" y="69.12"/>
  </clipPath>
 </defs>
</svg>
