<?xml version="1.0" encoding="utf-8" standalone="no"?>
<!DOCTYPE svg PUBLIC "-//W3C//DTD SVG 1.1//EN"
  "http://www.w3.org/Graphics/SVG/1.1/DTD/svg11.dtd">
<svg height="504pt" version="1.1" viewBox="0 0 1440 504" width="1440pt" xmlns="http://www.w3.org/2000/svg" xmlns:xlink="http://www.w3.org/1999/xlink">
 <metadata>
  <rdf:RDF xmlns:cc="http://creativecommons.org/ns#" xmlns:dc="http://purl.org/dc/elements/1.1/" xmlns:rdf="http://www.w3.org/1999/02/22-rdf-syntax-ns#">
   <cc:Work>
    <dc:type rdf:resource="http://purl.org/dc/dcmitype/StillImage"/>
    <dc:date>2021-07-02T14:57:22.211312</dc:date>
    <dc:format>image/svg+xml</dc:format>
    <dc:creator>
     <cc:Agent>
      <dc:title>Matplotlib v3.4.2, https://matplotlib.org/</dc:title>
     </cc:Agent>
    </dc:creator>
   </cc:Work>
  </rdf:RDF>
 </metadata>
 <defs>
  <style type="text/css">*{stroke-linecap:butt;stroke-linejoin:round;}</style>
 </defs>
 <g id="figure_1">
  <g id="patch_1">
   <path d="M 0 504 
L 1440 504 
L 1440 0 
L 0 0 
z
" style="fill:none;"/>
  </g>
  <g id="axes_1">
   <g id="patch_2">
    <path d="M 180 441 
L 1296 441 
L 1296 60.48 
L 180 60.48 
z
" style="fill:#ffffff;"/>
   </g>
   <g id="matplotlib.axis_1">
    <g id="xtick_1">
     <g id="line2d_1">
      <defs>
       <path d="M 0 0 
L 0 3.5 
" id="m9cd1be42ac" style="stroke:#000000;stroke-width:0.8;"/>
      </defs>
      <g>
       <use style="stroke:#000000;stroke-width:0.8;" x="180" xlink:href="#m9cd1be42ac" y="441"/>
      </g>
     </g>
     <g id="text_1">
      <!-- 0 -->
      <g transform="translate(174.27375 461.677188)scale(0.18 -0.18)">
       <defs>
        <path d="M 2034 4250 
Q 1547 4250 1301 3770 
Q 1056 3291 1056 2328 
Q 1056 1369 1301 889 
Q 1547 409 2034 409 
Q 2525 409 2770 889 
Q 3016 1369 3016 2328 
Q 3016 3291 2770 3770 
Q 2525 4250 2034 4250 
z
M 2034 4750 
Q 2819 4750 3233 4129 
Q 3647 3509 3647 2328 
Q 3647 1150 3233 529 
Q 2819 -91 2034 -91 
Q 1250 -91 836 529 
Q 422 1150 422 2328 
Q 422 3509 836 4129 
Q 1250 4750 2034 4750 
z
" id="DejaVuSans-30" transform="scale(0.015625)"/>
       </defs>
       <use xlink:href="#DejaVuSans-30"/>
      </g>
     </g>
    </g>
    <g id="xtick_2">
     <g id="line2d_2">
      <g>
       <use style="stroke:#000000;stroke-width:0.8;" x="366" xlink:href="#m9cd1be42ac" y="441"/>
      </g>
     </g>
     <g id="text_2">
      <!-- 5 -->
      <g transform="translate(360.27375 461.677188)scale(0.18 -0.18)">
       <defs>
        <path d="M 691 4666 
L 3169 4666 
L 3169 4134 
L 1269 4134 
L 1269 2991 
Q 1406 3038 1543 3061 
Q 1681 3084 1819 3084 
Q 2600 3084 3056 2656 
Q 3513 2228 3513 1497 
Q 3513 744 3044 326 
Q 2575 -91 1722 -91 
Q 1428 -91 1123 -41 
Q 819 9 494 109 
L 494 744 
Q 775 591 1075 516 
Q 1375 441 1709 441 
Q 2250 441 2565 725 
Q 2881 1009 2881 1497 
Q 2881 1984 2565 2268 
Q 2250 2553 1709 2553 
Q 1456 2553 1204 2497 
Q 953 2441 691 2322 
L 691 4666 
z
" id="DejaVuSans-35" transform="scale(0.015625)"/>
       </defs>
       <use xlink:href="#DejaVuSans-35"/>
      </g>
     </g>
    </g>
    <g id="xtick_3">
     <g id="line2d_3">
      <g>
       <use style="stroke:#000000;stroke-width:0.8;" x="552" xlink:href="#m9cd1be42ac" y="441"/>
      </g>
     </g>
     <g id="text_3">
      <!-- 10 -->
      <g transform="translate(540.5475 461.677188)scale(0.18 -0.18)">
       <defs>
        <path d="M 794 531 
L 1825 531 
L 1825 4091 
L 703 3866 
L 703 4441 
L 1819 4666 
L 2450 4666 
L 2450 531 
L 3481 531 
L 3481 0 
L 794 0 
L 794 531 
z
" id="DejaVuSans-31" transform="scale(0.015625)"/>
       </defs>
       <use xlink:href="#DejaVuSans-31"/>
       <use x="63.623047" xlink:href="#DejaVuSans-30"/>
      </g>
     </g>
    </g>
    <g id="xtick_4">
     <g id="line2d_4">
      <g>
       <use style="stroke:#000000;stroke-width:0.8;" x="738" xlink:href="#m9cd1be42ac" y="441"/>
      </g>
     </g>
     <g id="text_4">
      <!-- 15 -->
      <g transform="translate(726.5475 461.677188)scale(0.18 -0.18)">
       <use xlink:href="#DejaVuSans-31"/>
       <use x="63.623047" xlink:href="#DejaVuSans-35"/>
      </g>
     </g>
    </g>
    <g id="xtick_5">
     <g id="line2d_5">
      <g>
       <use style="stroke:#000000;stroke-width:0.8;" x="924" xlink:href="#m9cd1be42ac" y="441"/>
      </g>
     </g>
     <g id="text_5">
      <!-- 20 -->
      <g transform="translate(912.5475 461.677188)scale(0.18 -0.18)">
       <defs>
        <path d="M 1228 531 
L 3431 531 
L 3431 0 
L 469 0 
L 469 531 
Q 828 903 1448 1529 
Q 2069 2156 2228 2338 
Q 2531 2678 2651 2914 
Q 2772 3150 2772 3378 
Q 2772 3750 2511 3984 
Q 2250 4219 1831 4219 
Q 1534 4219 1204 4116 
Q 875 4013 500 3803 
L 500 4441 
Q 881 4594 1212 4672 
Q 1544 4750 1819 4750 
Q 2544 4750 2975 4387 
Q 3406 4025 3406 3419 
Q 3406 3131 3298 2873 
Q 3191 2616 2906 2266 
Q 2828 2175 2409 1742 
Q 1991 1309 1228 531 
z
" id="DejaVuSans-32" transform="scale(0.015625)"/>
       </defs>
       <use xlink:href="#DejaVuSans-32"/>
       <use x="63.623047" xlink:href="#DejaVuSans-30"/>
      </g>
     </g>
    </g>
    <g id="xtick_6">
     <g id="line2d_6">
      <g>
       <use style="stroke:#000000;stroke-width:0.8;" x="1110" xlink:href="#m9cd1be42ac" y="441"/>
      </g>
     </g>
     <g id="text_6">
      <!-- 25 -->
      <g transform="translate(1098.5475 461.677188)scale(0.18 -0.18)">
       <use xlink:href="#DejaVuSans-32"/>
       <use x="63.623047" xlink:href="#DejaVuSans-35"/>
      </g>
     </g>
    </g>
    <g id="xtick_7">
     <g id="line2d_7">
      <g>
       <use style="stroke:#000000;stroke-width:0.8;" x="1296" xlink:href="#m9cd1be42ac" y="441"/>
      </g>
     </g>
     <g id="text_7">
      <!-- 30 -->
      <g transform="translate(1284.5475 461.677188)scale(0.18 -0.18)">
       <defs>
        <path d="M 2597 2516 
Q 3050 2419 3304 2112 
Q 3559 1806 3559 1356 
Q 3559 666 3084 287 
Q 2609 -91 1734 -91 
Q 1441 -91 1130 -33 
Q 819 25 488 141 
L 488 750 
Q 750 597 1062 519 
Q 1375 441 1716 441 
Q 2309 441 2620 675 
Q 2931 909 2931 1356 
Q 2931 1769 2642 2001 
Q 2353 2234 1838 2234 
L 1294 2234 
L 1294 2753 
L 1863 2753 
Q 2328 2753 2575 2939 
Q 2822 3125 2822 3475 
Q 2822 3834 2567 4026 
Q 2313 4219 1838 4219 
Q 1578 4219 1281 4162 
Q 984 4106 628 3988 
L 628 4550 
Q 988 4650 1302 4700 
Q 1616 4750 1894 4750 
Q 2613 4750 3031 4423 
Q 3450 4097 3450 3541 
Q 3450 3153 3228 2886 
Q 3006 2619 2597 2516 
z
" id="DejaVuSans-33" transform="scale(0.015625)"/>
       </defs>
       <use xlink:href="#DejaVuSans-33"/>
       <use x="63.623047" xlink:href="#DejaVuSans-30"/>
      </g>
     </g>
    </g>
    <g id="text_8">
     <!-- Time [min] -->
     <g transform="translate(689.125781 483.097812)scale(0.18 -0.18)">
      <defs>
       <path d="M -19 4666 
L 3928 4666 
L 3928 4134 
L 2272 4134 
L 2272 0 
L 1638 0 
L 1638 4134 
L -19 4134 
L -19 4666 
z
" id="DejaVuSans-54" transform="scale(0.015625)"/>
       <path d="M 603 3500 
L 1178 3500 
L 1178 0 
L 603 0 
L 603 3500 
z
M 603 4863 
L 1178 4863 
L 1178 4134 
L 603 4134 
L 603 4863 
z
" id="DejaVuSans-69" transform="scale(0.015625)"/>
       <path d="M 3328 2828 
Q 3544 3216 3844 3400 
Q 4144 3584 4550 3584 
Q 5097 3584 5394 3201 
Q 5691 2819 5691 2113 
L 5691 0 
L 5113 0 
L 5113 2094 
Q 5113 2597 4934 2840 
Q 4756 3084 4391 3084 
Q 3944 3084 3684 2787 
Q 3425 2491 3425 1978 
L 3425 0 
L 2847 0 
L 2847 2094 
Q 2847 2600 2669 2842 
Q 2491 3084 2119 3084 
Q 1678 3084 1418 2786 
Q 1159 2488 1159 1978 
L 1159 0 
L 581 0 
L 581 3500 
L 1159 3500 
L 1159 2956 
Q 1356 3278 1631 3431 
Q 1906 3584 2284 3584 
Q 2666 3584 2933 3390 
Q 3200 3197 3328 2828 
z
" id="DejaVuSans-6d" transform="scale(0.015625)"/>
       <path d="M 3597 1894 
L 3597 1613 
L 953 1613 
Q 991 1019 1311 708 
Q 1631 397 2203 397 
Q 2534 397 2845 478 
Q 3156 559 3463 722 
L 3463 178 
Q 3153 47 2828 -22 
Q 2503 -91 2169 -91 
Q 1331 -91 842 396 
Q 353 884 353 1716 
Q 353 2575 817 3079 
Q 1281 3584 2069 3584 
Q 2775 3584 3186 3129 
Q 3597 2675 3597 1894 
z
M 3022 2063 
Q 3016 2534 2758 2815 
Q 2500 3097 2075 3097 
Q 1594 3097 1305 2825 
Q 1016 2553 972 2059 
L 3022 2063 
z
" id="DejaVuSans-65" transform="scale(0.015625)"/>
       <path id="DejaVuSans-20" transform="scale(0.015625)"/>
       <path d="M 550 4863 
L 1875 4863 
L 1875 4416 
L 1125 4416 
L 1125 -397 
L 1875 -397 
L 1875 -844 
L 550 -844 
L 550 4863 
z
" id="DejaVuSans-5b" transform="scale(0.015625)"/>
       <path d="M 3513 2113 
L 3513 0 
L 2938 0 
L 2938 2094 
Q 2938 2591 2744 2837 
Q 2550 3084 2163 3084 
Q 1697 3084 1428 2787 
Q 1159 2491 1159 1978 
L 1159 0 
L 581 0 
L 581 3500 
L 1159 3500 
L 1159 2956 
Q 1366 3272 1645 3428 
Q 1925 3584 2291 3584 
Q 2894 3584 3203 3211 
Q 3513 2838 3513 2113 
z
" id="DejaVuSans-6e" transform="scale(0.015625)"/>
       <path d="M 1947 4863 
L 1947 -844 
L 622 -844 
L 622 -397 
L 1369 -397 
L 1369 4416 
L 622 4416 
L 622 4863 
L 1947 4863 
z
" id="DejaVuSans-5d" transform="scale(0.015625)"/>
      </defs>
      <use xlink:href="#DejaVuSans-54"/>
      <use x="57.958984" xlink:href="#DejaVuSans-69"/>
      <use x="85.742188" xlink:href="#DejaVuSans-6d"/>
      <use x="183.154297" xlink:href="#DejaVuSans-65"/>
      <use x="244.677734" xlink:href="#DejaVuSans-20"/>
      <use x="276.464844" xlink:href="#DejaVuSans-5b"/>
      <use x="315.478516" xlink:href="#DejaVuSans-6d"/>
      <use x="412.890625" xlink:href="#DejaVuSans-69"/>
      <use x="440.673828" xlink:href="#DejaVuSans-6e"/>
      <use x="504.052734" xlink:href="#DejaVuSans-5d"/>
     </g>
    </g>
   </g>
   <g id="matplotlib.axis_2">
    <g id="ytick_1">
     <g id="line2d_8">
      <defs>
       <path d="M 0 0 
L -3.5 0 
" id="m94ddb00c87" style="stroke:#000000;stroke-width:0.8;"/>
      </defs>
      <g>
       <use style="stroke:#000000;stroke-width:0.8;" x="180" xlink:href="#m94ddb00c87" y="437.553793"/>
      </g>
     </g>
     <g id="text_9">
      <!-- −30 -->
      <g transform="translate(135.011562 444.392387)scale(0.18 -0.18)">
       <defs>
        <path d="M 678 2272 
L 4684 2272 
L 4684 1741 
L 678 1741 
L 678 2272 
z
" id="DejaVuSans-2212" transform="scale(0.015625)"/>
       </defs>
       <use xlink:href="#DejaVuSans-2212"/>
       <use x="83.789062" xlink:href="#DejaVuSans-33"/>
       <use x="147.412109" xlink:href="#DejaVuSans-30"/>
      </g>
     </g>
    </g>
    <g id="ytick_2">
     <g id="line2d_9">
      <g>
       <use style="stroke:#000000;stroke-width:0.8;" x="180" xlink:href="#m94ddb00c87" y="372.222864"/>
      </g>
     </g>
     <g id="text_10">
      <!-- −20 -->
      <g transform="translate(135.011562 379.061458)scale(0.18 -0.18)">
       <use xlink:href="#DejaVuSans-2212"/>
       <use x="83.789062" xlink:href="#DejaVuSans-32"/>
       <use x="147.412109" xlink:href="#DejaVuSans-30"/>
      </g>
     </g>
    </g>
    <g id="ytick_3">
     <g id="line2d_10">
      <g>
       <use style="stroke:#000000;stroke-width:0.8;" x="180" xlink:href="#m94ddb00c87" y="306.891934"/>
      </g>
     </g>
     <g id="text_11">
      <!-- −10 -->
      <g transform="translate(135.011562 313.730528)scale(0.18 -0.18)">
       <use xlink:href="#DejaVuSans-2212"/>
       <use x="83.789062" xlink:href="#DejaVuSans-31"/>
       <use x="147.412109" xlink:href="#DejaVuSans-30"/>
      </g>
     </g>
    </g>
    <g id="ytick_4">
     <g id="line2d_11">
      <g>
       <use style="stroke:#000000;stroke-width:0.8;" x="180" xlink:href="#m94ddb00c87" y="241.561004"/>
      </g>
     </g>
     <g id="text_12">
      <!-- 0 -->
      <g transform="translate(161.5475 248.399598)scale(0.18 -0.18)">
       <use xlink:href="#DejaVuSans-30"/>
      </g>
     </g>
    </g>
    <g id="ytick_5">
     <g id="line2d_12">
      <g>
       <use style="stroke:#000000;stroke-width:0.8;" x="180" xlink:href="#m94ddb00c87" y="176.230075"/>
      </g>
     </g>
     <g id="text_13">
      <!-- 10 -->
      <g transform="translate(150.095 183.068668)scale(0.18 -0.18)">
       <use xlink:href="#DejaVuSans-31"/>
       <use x="63.623047" xlink:href="#DejaVuSans-30"/>
      </g>
     </g>
    </g>
    <g id="ytick_6">
     <g id="line2d_13">
      <g>
       <use style="stroke:#000000;stroke-width:0.8;" x="180" xlink:href="#m94ddb00c87" y="110.899145"/>
      </g>
     </g>
     <g id="text_14">
      <!-- 20 -->
      <g transform="translate(150.095 117.737739)scale(0.18 -0.18)">
       <use xlink:href="#DejaVuSans-32"/>
       <use x="63.623047" xlink:href="#DejaVuSans-30"/>
      </g>
     </g>
    </g>
    <g id="text_15">
     <!-- Angle Diference [°] -->
     <g transform="translate(127.268125 336.957188)rotate(-90)scale(0.18 -0.18)">
      <defs>
       <path d="M 2188 4044 
L 1331 1722 
L 3047 1722 
L 2188 4044 
z
M 1831 4666 
L 2547 4666 
L 4325 0 
L 3669 0 
L 3244 1197 
L 1141 1197 
L 716 0 
L 50 0 
L 1831 4666 
z
" id="DejaVuSans-41" transform="scale(0.015625)"/>
       <path d="M 2906 1791 
Q 2906 2416 2648 2759 
Q 2391 3103 1925 3103 
Q 1463 3103 1205 2759 
Q 947 2416 947 1791 
Q 947 1169 1205 825 
Q 1463 481 1925 481 
Q 2391 481 2648 825 
Q 2906 1169 2906 1791 
z
M 3481 434 
Q 3481 -459 3084 -895 
Q 2688 -1331 1869 -1331 
Q 1566 -1331 1297 -1286 
Q 1028 -1241 775 -1147 
L 775 -588 
Q 1028 -725 1275 -790 
Q 1522 -856 1778 -856 
Q 2344 -856 2625 -561 
Q 2906 -266 2906 331 
L 2906 616 
Q 2728 306 2450 153 
Q 2172 0 1784 0 
Q 1141 0 747 490 
Q 353 981 353 1791 
Q 353 2603 747 3093 
Q 1141 3584 1784 3584 
Q 2172 3584 2450 3431 
Q 2728 3278 2906 2969 
L 2906 3500 
L 3481 3500 
L 3481 434 
z
" id="DejaVuSans-67" transform="scale(0.015625)"/>
       <path d="M 603 4863 
L 1178 4863 
L 1178 0 
L 603 0 
L 603 4863 
z
" id="DejaVuSans-6c" transform="scale(0.015625)"/>
       <path d="M 1259 4147 
L 1259 519 
L 2022 519 
Q 2988 519 3436 956 
Q 3884 1394 3884 2338 
Q 3884 3275 3436 3711 
Q 2988 4147 2022 4147 
L 1259 4147 
z
M 628 4666 
L 1925 4666 
Q 3281 4666 3915 4102 
Q 4550 3538 4550 2338 
Q 4550 1131 3912 565 
Q 3275 0 1925 0 
L 628 0 
L 628 4666 
z
" id="DejaVuSans-44" transform="scale(0.015625)"/>
       <path d="M 2375 4863 
L 2375 4384 
L 1825 4384 
Q 1516 4384 1395 4259 
Q 1275 4134 1275 3809 
L 1275 3500 
L 2222 3500 
L 2222 3053 
L 1275 3053 
L 1275 0 
L 697 0 
L 697 3053 
L 147 3053 
L 147 3500 
L 697 3500 
L 697 3744 
Q 697 4328 969 4595 
Q 1241 4863 1831 4863 
L 2375 4863 
z
" id="DejaVuSans-66" transform="scale(0.015625)"/>
       <path d="M 2631 2963 
Q 2534 3019 2420 3045 
Q 2306 3072 2169 3072 
Q 1681 3072 1420 2755 
Q 1159 2438 1159 1844 
L 1159 0 
L 581 0 
L 581 3500 
L 1159 3500 
L 1159 2956 
Q 1341 3275 1631 3429 
Q 1922 3584 2338 3584 
Q 2397 3584 2469 3576 
Q 2541 3569 2628 3553 
L 2631 2963 
z
" id="DejaVuSans-72" transform="scale(0.015625)"/>
       <path d="M 3122 3366 
L 3122 2828 
Q 2878 2963 2633 3030 
Q 2388 3097 2138 3097 
Q 1578 3097 1268 2742 
Q 959 2388 959 1747 
Q 959 1106 1268 751 
Q 1578 397 2138 397 
Q 2388 397 2633 464 
Q 2878 531 3122 666 
L 3122 134 
Q 2881 22 2623 -34 
Q 2366 -91 2075 -91 
Q 1284 -91 818 406 
Q 353 903 353 1747 
Q 353 2603 823 3093 
Q 1294 3584 2113 3584 
Q 2378 3584 2631 3529 
Q 2884 3475 3122 3366 
z
" id="DejaVuSans-63" transform="scale(0.015625)"/>
       <path d="M 1600 4347 
Q 1350 4347 1178 4173 
Q 1006 4000 1006 3750 
Q 1006 3503 1178 3333 
Q 1350 3163 1600 3163 
Q 1850 3163 2022 3333 
Q 2194 3503 2194 3750 
Q 2194 3997 2020 4172 
Q 1847 4347 1600 4347 
z
M 1600 4750 
Q 1800 4750 1984 4673 
Q 2169 4597 2303 4453 
Q 2447 4313 2519 4134 
Q 2591 3956 2591 3750 
Q 2591 3338 2302 3052 
Q 2013 2766 1594 2766 
Q 1172 2766 890 3047 
Q 609 3328 609 3750 
Q 609 4169 896 4459 
Q 1184 4750 1600 4750 
z
" id="DejaVuSans-b0" transform="scale(0.015625)"/>
      </defs>
      <use xlink:href="#DejaVuSans-41"/>
      <use x="68.408203" xlink:href="#DejaVuSans-6e"/>
      <use x="131.787109" xlink:href="#DejaVuSans-67"/>
      <use x="195.263672" xlink:href="#DejaVuSans-6c"/>
      <use x="223.046875" xlink:href="#DejaVuSans-65"/>
      <use x="284.570312" xlink:href="#DejaVuSans-20"/>
      <use x="316.357422" xlink:href="#DejaVuSans-44"/>
      <use x="393.359375" xlink:href="#DejaVuSans-69"/>
      <use x="421.142578" xlink:href="#DejaVuSans-66"/>
      <use x="456.347656" xlink:href="#DejaVuSans-65"/>
      <use x="517.871094" xlink:href="#DejaVuSans-72"/>
      <use x="556.734375" xlink:href="#DejaVuSans-65"/>
      <use x="618.257812" xlink:href="#DejaVuSans-6e"/>
      <use x="681.636719" xlink:href="#DejaVuSans-63"/>
      <use x="736.617188" xlink:href="#DejaVuSans-65"/>
      <use x="798.140625" xlink:href="#DejaVuSans-20"/>
      <use x="829.927734" xlink:href="#DejaVuSans-5b"/>
      <use x="868.941406" xlink:href="#DejaVuSans-b0"/>
      <use x="918.941406" xlink:href="#DejaVuSans-5d"/>
     </g>
    </g>
   </g>
   <g id="line2d_14">
    <path clip-path="url(#pa5b21180fc)" d="M 180 241.561004 
L 217.2 222.876358 
L 254.4 218.564517 
L 291.6 216.473927 
L 328.8 219.152495 
L 366 215.23264 
L 403.2 218.956503 
L 440.4 224.313639 
L 477.6 232.284012 
L 514.8 234.701257 
L 552 247.179464 
L 589.2 250.576673 
L 626.4 267.758707 
L 663.6 271.286577 
L 700.8 285.855375 
L 738 297.026964 
L 775.2 300.424172 
L 812.4 312.510394 
" style="fill:none;stroke:#1f77b4;stroke-linecap:square;stroke-width:2;"/>
   </g>
   <g id="line2d_15">
    <path clip-path="url(#pa5b21180fc)" d="M 180 241.561004 
L 217.2 256.456456 
L 254.4 254.823183 
L 291.6 278.146325 
L 328.8 286.704677 
L 366 290.297878 
L 403.2 299.378877 
L 440.4 301.338805 
L 477.6 315.580948 
L 514.8 321.591393 
L 552 331.456364 
L 589.2 342.627953 
L 626.4 350.467664 
L 663.6 350.85965 
L 700.8 359.679325 
L 738 362.553886 
L 775.2 377.971986 
L 812.4 385.093057 
L 849.6 394.304718 
L 886.8 401.49112 
L 924 407.893551 
L 961.2 408.154875 
L 998.4 412.140062 
L 1035.6 405.541638 
" style="fill:none;stroke:#1f77b4;stroke-linecap:square;stroke-width:2;"/>
   </g>
   <g id="line2d_16">
    <path clip-path="url(#pa5b21180fc)" d="M 180 241.561004 
L 217.2 237.118501 
L 254.4 236.33453 
L 291.6 240.319717 
L 328.8 248.812738 
L 366 254.62719 
L 403.2 258.155061 
L 440.4 268.216024 
L 477.6 277.689008 
L 514.8 288.207288 
L 552 294.021741 
L 589.2 298.464244 
L 626.4 307.349251 
L 663.6 312.118408 
L 700.8 312.90238 
L 738 311.007783 
L 775.2 318.259516 
L 812.4 319.892789 
L 849.6 313.947674 
" style="fill:none;stroke:#1f77b4;stroke-linecap:square;stroke-width:2;"/>
   </g>
   <g id="line2d_17">
    <path clip-path="url(#pa5b21180fc)" d="M 180 241.561004 
L 217.2 250.315349 
L 254.4 255.607154 
L 291.6 265.406794 
L 328.8 271.743894 
L 366 289.448576 
L 403.2 294.413727 
L 440.4 304.540021 
L 477.6 311.334437 
L 514.8 319.696796 
L 552 316.822235 
L 589.2 316.887566 
L 626.4 331.587025 
L 663.6 339.492068 
L 700.8 340.929348 
L 738 341.451996 
L 775.2 343.542586 
L 812.4 337.924126 
L 849.6 338.577435 
" style="fill:none;stroke:#1f77b4;stroke-linecap:square;stroke-width:2;"/>
   </g>
   <g id="line2d_18">
    <path clip-path="url(#pa5b21180fc)" d="M 180 241.561004 
L 217.2 240.51571 
L 254.4 242.148983 
L 291.6 255.607154 
L 328.8 268.281355 
L 366 279.648936 
L 403.2 283.307468 
L 440.4 279.91026 
L 477.6 292.58446 
L 514.8 299.640201 
L 552 300.29351 
L 589.2 314.143667 
L 626.4 322.244703 
L 663.6 337.466809 
L 700.8 349.030384 
L 738 357.19675 
L 775.2 366.081756 
L 812.4 377.253345 
L 849.6 389.600891 
L 886.8 399.400531 
L 924 393.847401 
L 961.2 387.118316 
L 998.4 378.755957 
L 1035.6 369.936281 
L 1072.8 367.192382 
L 1110 363.011203 
L 1147.2 358.699361 
L 1184.4 359.222009 
L 1221.6 349.683693 
L 1258.8 359.418002 
L 1296 356.47811 
L 1333.2 362.488555 
L 1370.4 357.131419 
L 1407.6 363.925836 
L 1441 352.956913 
" style="fill:none;stroke:#1f77b4;stroke-linecap:square;stroke-width:2;"/>
   </g>
   <g id="line2d_19">
    <path clip-path="url(#pa5b21180fc)" d="M 180 241.561004 
L 217.2 239.601076 
L 254.4 246.656817 
L 291.6 248.29009 
L 328.8 263.446866 
L 366 289.905892 
L 403.2 301.208143 
L 440.4 305.781308 
L 477.6 307.153258 
L 514.8 313.62102 
L 552 333.089637 
L 589.2 345.829168 
L 626.4 368.172346 
L 663.6 385.419712 
L 700.8 389.339567 
L 738 391.691481 
L 775.2 390.580855 
L 812.4 380.323899 
L 849.6 380.127906 
L 886.8 379.01728 
L 924 379.278604 
L 961.2 372.418857 
L 998.4 379.082611 
L 1035.6 374.248123 
L 1072.8 371.700216 
L 1110 367.649699 
L 1147.2 363.011203 
L 1184.4 360.920613 
L 1221.6 366.800397 
L 1258.8 361.116606 
L 1296 355.890131 
L 1333.2 356.47811 
L 1370.4 361.377929 
L 1407.6 367.584368 
" style="fill:none;stroke:#1f77b4;stroke-linecap:square;stroke-width:2;"/>
   </g>
   <g id="line2d_20">
    <path clip-path="url(#pa5b21180fc)" d="M 180 241.561004 
L 217.2 241.691666 
L 254.4 252.275277 
L 291.6 258.155061 
L 328.8 271.743894 
L 366 285.790044 
L 403.2 288.729936 
L 440.4 308.655869 
L 477.6 310.746459 
L 514.8 321.787386 
L 552 333.089637 
L 589.2 339.296075 
L 626.4 349.422369 
L 663.6 359.744656 
L 700.8 371.373562 
L 738 379.082611 
L 775.2 385.877028 
L 812.4 389.666222 
L 849.6 395.676668 
L 886.8 396.721962 
L 924 395.937991 
L 961.2 391.299495 
L 998.4 386.660999 
" style="fill:none;stroke:#1f77b4;stroke-linecap:square;stroke-width:2;"/>
   </g>
   <g id="line2d_21">
    <path clip-path="url(#pa5b21180fc)" d="M 180 241.561004 
L 217.2 221.439078 
L 254.4 227.776178 
L 291.6 236.922508 
L 328.8 245.872846 
L 366 250.184687 
L 403.2 261.160283 
L 440.4 266.58275 
L 477.6 285.920706 
L 514.8 292.192475 
L 552 297.876266 
L 589.2 311.334437 
L 626.4 333.742946 
L 663.6 337.205485 
L 700.8 346.743801 
L 738 359.809987 
L 775.2 361.835246 
L 812.4 364.448483 
" style="fill:none;stroke:#1f77b4;stroke-linecap:square;stroke-width:2;"/>
   </g>
   <g id="line2d_22">
    <path clip-path="url(#pa5b21180fc)" d="M 180 241.561004 
L 217.2 265.86411 
L 254.4 252.601931 
L 291.6 248.943399 
L 328.8 253.255241 
L 366 240.254386 
L 403.2 251.425975 
L 440.4 272.135879 
L 477.6 287.945964 
L 514.8 302.645424 
L 552 312.771718 
L 589.2 313.882344 
L 626.4 320.807422 
L 663.6 323.551321 
L 700.8 331.783018 
L 738 346.351816 
L 775.2 355.10616 
L 812.4 361.639253 
L 849.6 374.901432 
L 886.8 375.620072 
L 924 370.52426 
L 961.2 363.599181 
L 998.4 353.538218 
L 1035.6 344.914535 
L 1072.8 343.999902 
L 1110 341.190672 
L 1147.2 335.506881 
L 1184.4 329.365774 
L 1221.6 327.471177 
L 1258.8 327.209853 
L 1296 335.114896 
L 1333.2 338.642766 
L 1370.4 331.717687 
L 1407.6 337.989457 
" style="fill:none;stroke:#1f77b4;stroke-linecap:square;stroke-width:2;"/>
   </g>
   <g id="line2d_23">
    <path clip-path="url(#pa5b21180fc)" d="M 180 241.561004 
L 217.2 238.033134 
L 254.4 238.751774 
L 291.6 236.987839 
L 328.8 230.454746 
L 366 244.239572 
L 403.2 249.727371 
L 440.4 256.456456 
L 477.6 264.753484 
L 514.8 287.423317 
L 552 295.916338 
L 589.2 306.107963 
L 626.4 315.842271 
L 663.6 321.264739 
L 700.8 329.953752 
L 738 332.958975 
L 775.2 342.954607 
L 812.4 348.377074 
L 849.6 357.392743 
L 886.8 367.584368 
L 924 376.077389 
L 961.2 380.519892 
L 998.4 383.19846 
L 1035.6 379.01728 
L 1072.8 384.701071 
L 1110 393.782071 
L 1147.2 390.188869 
L 1184.4 385.419712 
L 1221.6 386.595668 
L 1258.8 381.10787 
L 1296 375.424079 
L 1333.2 379.409266 
L 1370.4 375.424079 
L 1407.6 372.810842 
L 1441 367.414367 
" style="fill:none;stroke:#1f77b4;stroke-linecap:square;stroke-width:2;"/>
   </g>
   <g id="line2d_24">
    <path clip-path="url(#pa5b21180fc)" d="M 180 241.561004 
L 217.2 258.024399 
L 254.4 292.453799 
L 291.6 296.308323 
L 328.8 313.033041 
L 366 327.993824 
L 403.2 336.09486 
L 440.4 344.849204 
L 477.6 352.166268 
L 514.8 366.34308 
L 552 369.413634 
L 589.2 378.886619 
L 626.4 389.600891 
L 663.6 403.712372 
L 700.8 406.717595 
L 738 406.325609 
L 775.2 414.165321 
L 812.4 420.698414 
L 849.6 423.703636 
" style="fill:none;stroke:#1f77b4;stroke-linecap:square;stroke-width:2;"/>
   </g>
   <g id="line2d_25">
    <path clip-path="url(#pa5b21180fc)" d="M 180 241.561004 
L 217.2 254.169874 
L 254.4 254.823183 
L 291.6 244.04358 
L 328.8 249.66204 
L 366 259.853665 
L 403.2 256.325794 
L 440.4 241.626335 
L 477.6 240.385048 
L 514.8 233.263976 
L 552 202.754432 
" style="fill:none;stroke:#e69f03;stroke-linecap:square;stroke-width:2;"/>
   </g>
   <g id="line2d_26">
    <path clip-path="url(#pa5b21180fc)" d="M 180 241.561004 
L 217.2 222.484373 
L 254.4 273.377167 
L 291.6 268.934664 
L 328.8 272.135879 
L 366 264.949477 
L 403.2 233.786624 
L 440.4 208.372892 
" style="fill:none;stroke:#e69f03;stroke-linecap:square;stroke-width:2;"/>
   </g>
   <g id="line2d_27">
    <path clip-path="url(#pa5b21180fc)" d="M 180 241.561004 
L 217.2 266.386758 
L 254.4 296.112331 
L 291.6 307.414582 
L 328.8 308.459876 
L 366 322.440695 
L 403.2 336.8135 
L 440.4 327.079191 
L 477.6 309.897157 
L 514.8 307.414582 
L 552 304.344028 
L 589.2 309.309178 
" style="fill:none;stroke:#e69f03;stroke-linecap:square;stroke-width:2;"/>
   </g>
   <g id="line2d_28">
    <path clip-path="url(#pa5b21180fc)" d="M 180 241.561004 
L 217.2 271.417239 
L 254.4 288.468612 
L 291.6 287.815303 
L 328.8 305.258661 
L 366 310.681128 
L 403.2 309.831826 
L 440.4 297.026964 
L 477.6 312.379732 
L 514.8 320.415437 
L 552 335.376219 
L 589.2 332.762982 
L 626.4 340.276039 
L 663.6 364.513814 
L 700.8 375.228087 
L 738 380.323899 
L 775.2 408.873515 
L 812.4 411.617414 
L 849.6 409.526825 
L 886.8 394.43538 
L 924 385.485042 
L 961.2 390.842179 
L 998.4 375.554741 
L 1035.6 330.411069 
" style="fill:none;stroke:#e69f03;stroke-linecap:square;stroke-width:2;"/>
   </g>
   <g id="line2d_29">
    <path clip-path="url(#pa5b21180fc)" d="M 180 241.561004 
L 217.2 260.89896 
L 254.4 304.670682 
L 291.6 310.615797 
L 328.8 301.600129 
L 366 332.958975 
L 403.2 345.437183 
L 440.4 360.332635 
L 477.6 366.931058 
L 514.8 376.992022 
L 552 384.63574 
L 589.2 378.559964 
L 626.4 388.882251 
L 663.6 389.927546 
L 700.8 392.606114 
L 738 359.940649 
L 775.2 359.28734 
L 812.4 352.427592 
" style="fill:none;stroke:#e69f03;stroke-linecap:square;stroke-width:2;"/>
   </g>
   <g id="line2d_30">
    <path clip-path="url(#pa5b21180fc)" d="M 180 241.561004 
L 217.2 230.193423 
L 254.4 248.486083 
L 291.6 265.668117 
L 328.8 270.175952 
L 366 278.211656 
L 403.2 290.755194 
L 440.4 300.097517 
L 477.6 300.946819 
L 514.8 300.750827 
L 552 301.01215 
L 589.2 294.479057 
L 626.4 295.197698 
L 663.6 293.368432 
L 700.8 295.720345 
L 738 292.323137 
L 775.2 265.86411 
L 812.4 262.924218 
L 849.6 255.868478 
L 886.8 246.068839 
L 924 238.947767 
L 961.2 223.790992 
L 998.4 207.327597 
L 1035.6 199.161231 
L 1072.8 176.426067 
L 1110 160.877306 
L 1147.2 142.388653 
L 1184.4 110.637821 
L 1221.6 106.913958 
" style="fill:none;stroke:#e69f03;stroke-linecap:square;stroke-width:2;"/>
   </g>
   <g id="line2d_31">
    <path clip-path="url(#pa5b21180fc)" d="M 180 241.561004 
L 217.2 228.364157 
L 254.4 275.075771 
L 291.6 283.046145 
L 328.8 309.243848 
L 366 316.495581 
L 403.2 305.389323 
L 440.4 293.564424 
L 477.6 296.308323 
L 514.8 295.785676 
L 552 302.580093 
L 589.2 294.087072 
L 626.4 292.127144 
L 663.6 286.966001 
L 700.8 287.096662 
" style="fill:none;stroke:#e69f03;stroke-linecap:square;stroke-width:2;"/>
   </g>
   <g id="line2d_32">
    <path clip-path="url(#pa5b21180fc)" d="M 180 241.561004 
L 217.2 231.304048 
L 254.4 238.294458 
L 291.6 262.597564 
L 328.8 270.633268 
L 366 278.734303 
L 403.2 289.7099 
L 440.4 286.835339 
L 477.6 290.951187 
L 514.8 284.548756 
L 552 286.116698 
L 589.2 290.363209 
L 626.4 290.101885 
L 663.6 284.222101 
L 700.8 284.744749 
L 738 288.403281 
L 775.2 275.925073 
L 812.4 281.608864 
L 849.6 280.694231 
L 886.8 282.196843 
L 924 283.634123 
L 961.2 282.850152 
L 998.4 271.48257 
L 1035.6 270.437275 
L 1072.8 271.809225 
L 1110 283.960778 
L 1147.2 286.378022 
L 1184.4 282.654159 
L 1221.6 287.553979 
L 1258.8 290.559202 
L 1296 279.975591 
L 1333.2 278.276987 
L 1370.4 282.915483 
L 1407.6 294.021741 
L 1441 297.658496 
" style="fill:none;stroke:#e69f03;stroke-linecap:square;stroke-width:2;"/>
   </g>
   <g id="line2d_33">
    <path clip-path="url(#pa5b21180fc)" d="M 180 241.561004 
L 217.2 260.24565 
L 254.4 257.697744 
L 291.6 267.562714 
L 328.8 278.211656 
L 366 273.115843 
L 403.2 289.252583 
L 440.4 310.354473 
L 477.6 319.043487 
L 514.8 335.049565 
L 552 340.733356 
L 589.2 339.688061 
L 626.4 338.25078 
L 663.6 332.63232 
L 700.8 336.029529 
L 738 331.521695 
L 775.2 282.784821 
L 812.4 319.500804 
" style="fill:none;stroke:#e69f03;stroke-linecap:square;stroke-width:2;"/>
   </g>
   <g id="line2d_34">
    <path clip-path="url(#pa5b21180fc)" d="M 180 241.561004 
L 217.2 247.767443 
L 254.4 242.867623 
L 291.6 221.112423 
L 328.8 179.757945 
L 366 80.062946 
L 403.2 77.776364 
" style="fill:none;stroke:#e69f03;stroke-linecap:square;stroke-width:2;"/>
   </g>
   <g id="line2d_35">
    <path clip-path="url(#pa5b21180fc)" d="M 180 241.561004 
L 217.2 161.007968 
L 254.4 196.613325 
L 291.6 261.421607 
L 328.8 277.297023 
L 366 310.746459 
L 403.2 309.897157 
L 440.4 311.073114 
L 477.6 308.263884 
L 514.8 310.746459 
L 552 283.895447 
L 589.2 287.880634 
" style="fill:none;stroke:#e69f03;stroke-linecap:square;stroke-width:2;"/>
   </g>
   <g id="line2d_36">
    <path clip-path="url(#pa5b21180fc)" d="M 180 241.561004 
L 217.2 251.948622 
L 254.4 295.067036 
L 291.6 291.800489 
" style="fill:none;stroke:#e69f03;stroke-linecap:square;stroke-width:2;"/>
   </g>
   <g id="line2d_37"/>
   <g id="line2d_38"/>
   <g id="patch_3">
    <path d="M 180 441 
L 180 60.48 
" style="fill:none;stroke:#000000;stroke-linecap:square;stroke-linejoin:miter;stroke-width:0.8;"/>
   </g>
   <g id="patch_4">
    <path d="M 1296 441 
L 1296 60.48 
" style="fill:none;stroke:#000000;stroke-linecap:square;stroke-linejoin:miter;stroke-width:0.8;"/>
   </g>
   <g id="patch_5">
    <path d="M 180 441 
L 1296 441 
" style="fill:none;stroke:#000000;stroke-linecap:square;stroke-linejoin:miter;stroke-width:0.8;"/>
   </g>
   <g id="patch_6">
    <path d="M 180 60.48 
L 1296 60.48 
" style="fill:none;stroke:#000000;stroke-linecap:square;stroke-linejoin:miter;stroke-width:0.8;"/>
   </g>
   <g id="legend_1">
    <g id="patch_7">
     <path d="M 192.6 154.141875 
L 281.033437 154.141875 
Q 284.633438 154.141875 284.633438 150.541875 
L 284.633438 73.08 
Q 284.633438 69.48 281.033437 69.48 
L 192.6 69.48 
Q 189 69.48 189 73.08 
L 189 150.541875 
Q 189 154.141875 192.6 154.141875 
z
" style="fill:#ffffff;opacity:0.8;stroke:#cccccc;stroke-linejoin:miter;"/>
    </g>
    <g id="text_16">
     <!-- Type -->
     <g transform="translate(216.147656 90.357188)scale(0.18 -0.18)">
      <defs>
       <path d="M 2059 -325 
Q 1816 -950 1584 -1140 
Q 1353 -1331 966 -1331 
L 506 -1331 
L 506 -850 
L 844 -850 
Q 1081 -850 1212 -737 
Q 1344 -625 1503 -206 
L 1606 56 
L 191 3500 
L 800 3500 
L 1894 763 
L 2988 3500 
L 3597 3500 
L 2059 -325 
z
" id="DejaVuSans-79" transform="scale(0.015625)"/>
       <path d="M 1159 525 
L 1159 -1331 
L 581 -1331 
L 581 3500 
L 1159 3500 
L 1159 2969 
Q 1341 3281 1617 3432 
Q 1894 3584 2278 3584 
Q 2916 3584 3314 3078 
Q 3713 2572 3713 1747 
Q 3713 922 3314 415 
Q 2916 -91 2278 -91 
Q 1894 -91 1617 61 
Q 1341 213 1159 525 
z
M 3116 1747 
Q 3116 2381 2855 2742 
Q 2594 3103 2138 3103 
Q 1681 3103 1420 2742 
Q 1159 2381 1159 1747 
Q 1159 1113 1420 752 
Q 1681 391 2138 391 
Q 2594 391 2855 752 
Q 3116 1113 3116 1747 
z
" id="DejaVuSans-70" transform="scale(0.015625)"/>
      </defs>
      <use xlink:href="#DejaVuSans-54"/>
      <use x="45.458984" xlink:href="#DejaVuSans-79"/>
      <use x="104.638672" xlink:href="#DejaVuSans-70"/>
      <use x="168.115234" xlink:href="#DejaVuSans-65"/>
     </g>
    </g>
    <g id="line2d_39">
     <path d="M 196.2 110.477812 
L 232.2 110.477812 
" style="fill:none;stroke:#1f77b4;stroke-linecap:square;stroke-width:1.5;"/>
    </g>
    <g id="line2d_40"/>
    <g id="text_17">
     <!-- WT -->
     <g transform="translate(246.6 116.777812)scale(0.18 -0.18)">
      <defs>
       <path d="M 213 4666 
L 850 4666 
L 1831 722 
L 2809 4666 
L 3519 4666 
L 4500 722 
L 5478 4666 
L 6119 4666 
L 4947 0 
L 4153 0 
L 3169 4050 
L 2175 0 
L 1381 0 
L 213 4666 
z
" id="DejaVuSans-57" transform="scale(0.015625)"/>
      </defs>
      <use xlink:href="#DejaVuSans-57"/>
      <use x="98.876953" xlink:href="#DejaVuSans-54"/>
     </g>
    </g>
    <g id="line2d_41">
     <path d="M 196.2 136.898437 
L 232.2 136.898437 
" style="fill:none;stroke:#e69f03;stroke-linecap:square;stroke-width:1.5;"/>
    </g>
    <g id="line2d_42"/>
    <g id="text_18">
     <!-- Btd -->
     <g transform="translate(246.6 143.198437)scale(0.18 -0.18)">
      <defs>
       <path d="M 1259 2228 
L 1259 519 
L 2272 519 
Q 2781 519 3026 730 
Q 3272 941 3272 1375 
Q 3272 1813 3026 2020 
Q 2781 2228 2272 2228 
L 1259 2228 
z
M 1259 4147 
L 1259 2741 
L 2194 2741 
Q 2656 2741 2882 2914 
Q 3109 3088 3109 3444 
Q 3109 3797 2882 3972 
Q 2656 4147 2194 4147 
L 1259 4147 
z
M 628 4666 
L 2241 4666 
Q 2963 4666 3353 4366 
Q 3744 4066 3744 3513 
Q 3744 3084 3544 2831 
Q 3344 2578 2956 2516 
Q 3422 2416 3680 2098 
Q 3938 1781 3938 1306 
Q 3938 681 3513 340 
Q 3088 0 2303 0 
L 628 0 
L 628 4666 
z
" id="DejaVuSans-42" transform="scale(0.015625)"/>
       <path d="M 1172 4494 
L 1172 3500 
L 2356 3500 
L 2356 3053 
L 1172 3053 
L 1172 1153 
Q 1172 725 1289 603 
Q 1406 481 1766 481 
L 2356 481 
L 2356 0 
L 1766 0 
Q 1100 0 847 248 
Q 594 497 594 1153 
L 594 3053 
L 172 3053 
L 172 3500 
L 594 3500 
L 594 4494 
L 1172 4494 
z
" id="DejaVuSans-74" transform="scale(0.015625)"/>
       <path d="M 2906 2969 
L 2906 4863 
L 3481 4863 
L 3481 0 
L 2906 0 
L 2906 525 
Q 2725 213 2448 61 
Q 2172 -91 1784 -91 
Q 1150 -91 751 415 
Q 353 922 353 1747 
Q 353 2572 751 3078 
Q 1150 3584 1784 3584 
Q 2172 3584 2448 3432 
Q 2725 3281 2906 2969 
z
M 947 1747 
Q 947 1113 1208 752 
Q 1469 391 1925 391 
Q 2381 391 2643 752 
Q 2906 1113 2906 1747 
Q 2906 2381 2643 2742 
Q 2381 3103 1925 3103 
Q 1469 3103 1208 2742 
Q 947 2381 947 1747 
z
" id="DejaVuSans-64" transform="scale(0.015625)"/>
      </defs>
      <use xlink:href="#DejaVuSans-42"/>
      <use x="68.603516" xlink:href="#DejaVuSans-74"/>
      <use x="107.8125" xlink:href="#DejaVuSans-64"/>
     </g>
    </g>
   </g>
  </g>
 </g>
 <defs>
  <clipPath id="pa5b21180fc">
   <rect height="380.52" width="1116" x="180" y="60.48"/>
  </clipPath>
 </defs>
</svg>
